<svg width="219" height="145" viewBox="0 0 219 145" fill="none" xmlns="http://www.w3.org/2000/svg">
<g clip-path="url(#clip0_13_6)">
<path d="M31.8098 116.843C31.8712 116.858 31.9327 116.873 32.1615 117.062C32.6303 117.284 32.9316 117.372 33.233 117.372C45.9231 117.38 58.6131 117.385 71.3031 117.361C71.8017 117.36 72.2997 117.077 72.798 116.925C74.1385 115.151 75.442 113.347 76.8268 111.609C80.0358 107.58 83.2749 103.575 86.5195 99.5741C89.0747 96.4237 91.6622 93.2994 94.2248 90.155C97.5557 86.0678 100.933 82.0169 104.181 77.8642C106.317 75.133 105.836 71.1581 103.508 68.5327C101.379 66.1328 99.4632 63.5445 97.4573 61.0362C94.9994 57.9627 92.5254 54.9018 90.0951 51.8066C87.1086 48.0029 84.1903 44.1455 81.1861 40.356C78.475 36.9361 75.6879 33.5764 72.7976 29.9432C72.4186 29.6629 72.1762 29.6008 71.9337 29.6007C59.0099 29.5952 46.0861 29.5915 33.1624 29.6096C32.7318 29.6102 32.3016 29.8368 31.8713 29.9581C28.2019 34.8942 19.6173 35.9203 13.6423 31.9345C9.22745 28.9895 6.8855 24.671 7.08704 19.471C7.30263 13.9087 9.92764 9.08364 15.7491 6.70483C21.4958 4.3566 26.7398 5.33117 31.7436 9.35253C32.4362 9.59649 32.9231 9.67195 33.4099 9.67203C49.6292 9.6747 65.8485 9.67016 82.0678 9.66669C83.7588 11.6369 85.4889 13.5751 87.1323 15.5841C90.1664 19.2932 93.155 23.0394 96.1528 26.778C100.529 32.2356 104.872 37.72 109.275 43.1556C112.8 47.506 116.394 51.7997 119.953 56.1221C120.221 56.4476 120.441 56.8126 120.706 57.1402C121.886 58.5941 123.193 59.6328 125.077 60.3843C132.748 63.4437 136.253 71.2817 133.446 78.8738C131.885 83.0957 128.675 86.1014 124.207 87.5886C123.072 87.9662 121.906 88.7372 121.14 89.6504C117.519 93.9636 114.033 98.3896 110.497 102.774C107.415 106.595 104.354 110.433 101.242 114.229C97.6625 118.596 94.0207 122.911 90.4366 127.274C87.8216 130.457 85.2562 133.68 82.3999 136.965C81.3341 137.08 80.5372 137.148 79.7402 137.148C64.4753 137.154 49.2103 137.146 33.9454 137.175C33.2291 137.176 32.5133 137.501 31.7973 137.675C23.8179 145.557 10.2582 141.421 7.54639 130.56C6.37452 125.867 7.33703 121.594 10.5927 117.916C10.8275 117.651 10.9773 117.311 11.4333 116.892C11.7561 116.481 11.8607 116.183 11.861 115.885C11.8703 105.63 11.8734 95.3754 11.8561 85.1207C11.8555 84.7362 11.643 84.352 11.5293 83.9676C8.82649 81.0938 6.98188 77.7744 7.03023 73.7595C7.09578 68.3149 9.61001 64.2435 14.2334 61.2689C17.9568 58.8734 22.0937 58.81 25.8877 59.7531C29.8587 60.7402 32.9679 63.6727 34.8844 67.5554C37.5756 73.008 36.3536 79.9076 32.0541 83.906C31.7209 84.7046 31.4663 85.3352 31.4647 85.9663C31.4394 95.6122 31.4401 105.258 31.4626 114.904C31.4641 115.551 31.6889 116.197 31.8098 116.843ZM19.9456 132.728C23.822 133.57 27.1846 131.533 27.7526 127.997C28.3285 124.412 25.8035 121.166 22.2206 120.883C19.4127 120.662 16.6943 122.575 15.9486 125.296C15.1153 128.336 16.4829 131.029 19.9456 132.728ZM16.5418 76.4155C18.3029 78.9931 20.6477 79.9867 23.3126 79.2846C25.7782 78.635 27.6022 76.49 27.7934 74.0151C27.995 71.4066 26.6938 69.0785 24.4143 67.9692C22.1731 66.8786 19.5639 67.2571 17.7238 68.9397C15.7112 70.7801 15.2466 73.3147 16.5418 76.4155ZM114.571 76.7951C116.495 79.3318 118.817 80.232 121.438 79.4579C123.784 78.7654 125.529 76.6516 125.752 74.2343C125.99 71.6475 124.585 69.2316 122.195 68.1171C120.002 67.0946 117.298 67.5653 115.535 69.2763C113.568 71.1868 113.186 73.6958 114.571 76.7951ZM17.3239 23.9062C19.8397 26.1727 22.501 26.5182 25.0549 24.9099C27.2749 23.512 28.3575 20.6597 27.5829 18.1518C26.7957 15.603 25.0217 14.0966 22.4128 13.7893C19.9384 13.4978 17.9317 14.5508 16.6481 16.6713C15.1909 19.0788 15.4272 21.4682 17.3239 23.9062Z" fill="#116CA2"/>
<path d="M189.031 119.523C191.434 115.279 195.227 113.454 199.932 112.728C204.484 112.024 208.131 113.652 211.318 116.46C218.174 122.5 217.447 133.284 210.175 138.584C203.618 143.362 196.241 142.152 190.942 137.176C190.375 136.643 189.968 135.939 189.452 135.063C189.271 134.756 189.125 134.699 188.979 134.643C188.979 134.643 189.047 134.635 189.011 134.504C188.246 134.308 187.519 134.186 186.791 134.184C178.162 134.171 169.533 134.169 160.904 134.181C159.182 134.184 157.46 134.259 155.739 134.301C148.987 134.169 143.233 131.473 137.968 127.458C133.242 123.853 130.044 118.903 126.322 114.412C123.997 111.606 121.684 108.788 119.218 105.796C122.468 101.968 125.617 98.2596 128.948 94.3364C131.854 97.9174 134.557 101.215 137.223 104.543C139.889 107.872 142.45 111.287 145.184 114.558C147.478 117.302 150.43 119.079 154.305 119.793C165.704 119.881 176.798 119.903 187.893 119.901C188.272 119.9 188.651 119.654 189.031 119.523Z" fill="#1D5066"/>
<path d="M189.009 12.2566C191.123 8.15185 194.579 6.0983 199.078 5.49105C205.648 4.60442 210.679 6.91981 214.052 12.6082C216.843 17.3153 216.75 22.1046 214.104 26.8827C209.403 35.3742 198.464 35.9565 191.922 30.8247C190.763 29.9157 190.027 28.4673 188.984 27.0046C186.179 26.6789 183.486 26.5625 180.794 26.5643C172.196 26.57 163.598 26.6196 155 26.6523C151.421 27.5504 148.076 28.9243 145.612 31.8C143.875 33.8267 142.309 35.9992 140.638 38.0836C137.791 41.6351 134.926 45.1717 132.06 48.7074C131.254 49.7009 130.481 50.7362 129.558 51.6094C129.277 51.8754 128.266 51.8899 128.059 51.6362C125.148 48.0737 122.319 44.4449 119.328 40.6533C120.543 39.294 121.804 37.9888 122.942 36.5844C124.77 34.3296 126.42 31.9242 128.321 29.7355C131.63 25.9266 134.248 21.5463 138.61 18.6108C142.951 15.6891 147.614 13.7921 152.646 12.6596C153.812 12.397 155.042 12.4117 156.492 12.3519C157.105 12.4599 157.468 12.5624 157.831 12.5628C167.689 12.5725 177.547 12.5766 187.404 12.5592C187.94 12.5583 188.474 12.3619 189.009 12.2566Z" fill="#1C4F65"/>
<path d="M31.9692 137.64C32.5135 137.501 33.2292 137.176 33.9456 137.175C49.2105 137.146 64.4754 137.154 79.7404 137.148C80.5373 137.148 81.3342 137.08 82.3039 137.03C81.8816 137.212 81.287 137.576 80.6917 137.577C64.5082 137.609 48.3246 137.604 31.9692 137.64Z" fill="#CDDAE7"/>
<path d="M82.0412 9.50255C65.8488 9.67007 49.6294 9.67461 33.4101 9.67194C32.9233 9.67186 32.4364 9.5964 31.8418 9.43156C46.2789 9.28711 60.8237 9.26298 75.3685 9.25175C77.5838 9.25004 79.7991 9.30809 82.0412 9.50255Z" fill="#E4EAF0"/>
<path d="M32.04 29.9589C32.3017 29.8368 32.732 29.6102 33.1625 29.6096C46.0863 29.5915 59.0101 29.5952 71.9339 29.6007C72.1763 29.6008 72.4187 29.6629 72.7479 29.8248C59.2926 29.9556 45.7507 29.9577 32.04 29.9589Z" fill="#D2E3ED"/>
<path d="M72.6316 116.916C72.2997 117.077 71.8016 117.36 71.303 117.361C58.6131 117.385 45.923 117.38 33.233 117.372C32.9316 117.372 32.6302 117.284 32.251 117.093C45.6038 116.935 59.0344 116.921 72.6316 116.916Z" fill="#EAEFF4"/>
<path d="M188.857 119.508C188.651 119.655 188.272 119.901 187.893 119.901C176.798 119.903 165.704 119.881 154.437 119.847C154.758 119.714 155.252 119.492 155.747 119.492C166.725 119.477 177.704 119.487 188.857 119.508Z" fill="#E5E8EA"/>
<path d="M155.072 26.7964C163.598 26.6196 172.196 26.57 180.794 26.5642C183.486 26.5624 186.179 26.6788 188.951 26.8817C178.409 27.0158 167.787 27.0104 157.166 27.0002C156.492 26.9996 155.819 26.9613 155.072 26.7964Z" fill="#D0D7DA"/>
<path d="M31.8086 116.674C31.689 116.197 31.4642 115.551 31.4627 114.904C31.4402 105.258 31.4395 95.6123 31.4648 85.9664C31.4664 85.3352 31.721 84.7047 31.9909 84.0161C32.0208 84.6707 31.8294 85.3828 31.8279 86.0954C31.806 96.232 31.8098 106.369 31.8086 116.674Z" fill="#6A95B9"/>
<path d="M155.807 134.448C157.46 134.26 159.182 134.184 160.904 134.182C169.533 134.169 178.162 134.171 186.791 134.185C187.519 134.186 188.246 134.308 189.015 134.539C178.609 134.683 168.162 134.664 157.714 134.641C157.102 134.64 156.489 134.611 155.807 134.448Z" fill="#D4DADD"/>
<path d="M11.5034 84.1401C11.6433 84.352 11.8558 84.7362 11.8564 85.1208C11.8737 95.3755 11.8706 105.63 11.8613 115.885C11.861 116.183 11.7564 116.481 11.5468 116.841C11.418 107.145 11.4429 97.3866 11.4678 87.6278C11.4707 86.5227 11.474 85.4176 11.5034 84.1401Z" fill="#E0E7EE"/>
<path d="M188.839 12.2391C188.474 12.3619 187.94 12.5582 187.404 12.5592C177.547 12.5766 167.689 12.5725 157.831 12.5628C157.468 12.5624 157.105 12.4599 156.613 12.3221C167.213 12.2333 177.94 12.2274 188.839 12.2391Z" fill="#386578"/>
<path d="M189.019 134.744C189.125 134.699 189.271 134.756 189.415 134.946C189.295 135.002 189.177 134.923 189.019 134.744Z" fill="#D4DADD"/>
<path d="M19.8109 132.682C16.483 131.03 15.1154 128.337 15.9487 125.296C16.6945 122.575 19.4129 120.662 22.2208 120.884C25.8037 121.166 28.3287 124.412 27.7528 127.997C27.1848 131.533 23.8222 133.571 19.8109 132.682Z" fill="#FAFBFC"/>
<path d="M16.4696 76.2972C15.2469 73.3147 15.7116 70.7801 17.7241 68.9397C19.5642 67.2571 22.1735 66.8786 24.4146 67.9692C26.6941 69.0785 27.9953 71.4066 27.7938 74.0151C27.6025 76.49 25.7785 78.635 23.3129 79.2846C20.6481 79.9867 18.3032 78.9931 16.4696 76.2972Z" fill="#FAFBFC"/>
<path d="M114.499 76.6759C113.186 73.6958 113.568 71.1868 115.536 69.2763C117.298 67.5653 120.002 67.0945 122.195 68.1171C124.585 69.2316 125.99 71.6475 125.752 74.2342C125.529 76.6515 123.784 78.7653 121.438 79.4579C118.817 80.2319 116.496 79.3318 114.499 76.6759Z" fill="#FAFBFD"/>
<path d="M17.2336 23.8047C15.4273 21.4681 15.191 19.0787 16.6483 16.6712C17.9319 14.5507 19.9386 13.4977 22.413 13.7892C25.0219 14.0966 26.7958 15.603 27.5831 18.1518C28.3577 20.6597 27.2751 23.512 25.0551 24.9099C22.5011 26.5181 19.8398 26.1726 17.2336 23.8047Z" fill="#FAFCFD"/>
</g>
<defs>
<clipPath id="clip0_13_6">
<rect width="219" height="145" fill="white"/>
</clipPath>
</defs>
</svg>
